<svg width="1440" height="48" viewBox="0 0 1440 48" fill="none" xmlns="http://www.w3.org/2000/svg">
<path d="M-237 5C-201.387 5 -201.387 43 -165.775 43C-130.162 43 -130.162 5 -94.5499 5C-58.9373 5 -58.9373 43 -23.4083 43C12.2053 43 12.2053 5 47.7333 5C83.3467 5 83.3467 43 118.875 43C154.488 43 154.488 5 190.099 5C225.712 5 225.712 43 261.325 43C296.936 43 296.936 5 332.549 5C368.163 5 368.163 43 403.776 43C439.387 43 439.387 5 475 5" stroke="#324D43" stroke-width="10" stroke-miterlimit="10" stroke-linecap="round"/>
<path d="M-237 5C-201.387 5 -201.387 43 -165.775 43C-130.162 43 -130.162 5 -94.5499 5C-58.9373 5 -58.9373 43 -23.4083 43C12.2053 43 12.2053 5 47.7333 5C83.3467 5 83.3467 43 118.875 43C154.488 43 154.488 5 190.099 5C225.712 5 225.712 43 261.325 43C296.936 43 296.936 5 332.549 5C368.163 5 368.163 43 403.776 43C439.387 43 439.387 5 475 5" stroke="#324D43" stroke-width="10" stroke-miterlimit="10" stroke-linecap="round"/>
<path d="M-237 5C-201.387 5 -201.387 43 -165.775 43C-130.162 43 -130.162 5 -94.5499 5C-58.9373 5 -58.9373 43 -23.4083 43C12.2053 43 12.2053 5 47.7333 5C83.3467 5 83.3467 43 118.875 43C154.488 43 154.488 5 190.099 5C225.712 5 225.712 43 261.325 43C296.936 43 296.936 5 332.549 5C368.163 5 368.163 43 403.776 43C439.387 43 439.387 5 475 5" stroke="#324D43" stroke-width="10" stroke-miterlimit="10" stroke-linecap="round"/>
<path d="M475 5C510.613 5 510.613 43 546.225 43C581.838 43 581.838 5 617.45 5C653.063 5 653.063 43 688.592 43C724.205 43 724.205 5 759.733 5C795.347 5 795.347 43 830.875 43C866.488 43 866.488 5 902.099 5C937.712 5 937.712 43 973.325 43C1008.94 43 1008.94 5 1044.55 5C1080.16 5 1080.16 43 1115.78 43C1151.39 43 1151.39 5 1187 5" stroke="#324D43" stroke-width="10" stroke-miterlimit="10" stroke-linecap="round"/>
<path d="M475 5C510.613 5 510.613 43 546.225 43C581.838 43 581.838 5 617.45 5C653.063 5 653.063 43 688.592 43C724.205 43 724.205 5 759.733 5C795.347 5 795.347 43 830.875 43C866.488 43 866.488 5 902.099 5C937.712 5 937.712 43 973.325 43C1008.94 43 1008.94 5 1044.55 5C1080.16 5 1080.16 43 1115.78 43C1151.39 43 1151.39 5 1187 5" stroke="#324D43" stroke-width="10" stroke-miterlimit="10" stroke-linecap="round"/>
<path d="M475 5C510.613 5 510.613 43 546.225 43C581.838 43 581.838 5 617.45 5C653.063 5 653.063 43 688.592 43C724.205 43 724.205 5 759.733 5C795.347 5 795.347 43 830.875 43C866.488 43 866.488 5 902.099 5C937.712 5 937.712 43 973.325 43C1008.94 43 1008.94 5 1044.55 5C1080.16 5 1080.16 43 1115.78 43C1151.39 43 1151.39 5 1187 5" stroke="#324D43" stroke-width="10" stroke-miterlimit="10" stroke-linecap="round"/>
<path d="M1187 5C1222.61 5 1222.61 43 1258.23 43C1293.84 43 1293.84 5 1329.45 5C1365.06 5 1365.06 43 1400.59 43C1436.21 43 1436.21 5 1471.73 5C1507.35 5 1507.35 43 1542.87 43C1578.49 43 1578.49 5 1614.1 5C1649.71 5 1649.71 43 1685.33 43C1720.94 43 1720.94 5 1756.55 5C1792.16 5 1792.16 43 1827.78 43C1863.39 43 1863.39 5 1899 5" stroke="#324D43" stroke-width="10" stroke-miterlimit="10" stroke-linecap="round"/>
<path d="M1187 5C1222.61 5 1222.61 43 1258.23 43C1293.84 43 1293.84 5 1329.45 5C1365.06 5 1365.06 43 1400.59 43C1436.21 43 1436.21 5 1471.73 5C1507.35 5 1507.35 43 1542.87 43C1578.49 43 1578.49 5 1614.1 5C1649.71 5 1649.71 43 1685.33 43C1720.94 43 1720.94 5 1756.55 5C1792.16 5 1792.16 43 1827.78 43C1863.39 43 1863.39 5 1899 5" stroke="#324D43" stroke-width="10" stroke-miterlimit="10" stroke-linecap="round"/>
<path d="M1187 5C1222.61 5 1222.61 43 1258.23 43C1293.84 43 1293.84 5 1329.45 5C1365.06 5 1365.06 43 1400.59 43C1436.21 43 1436.21 5 1471.73 5C1507.35 5 1507.35 43 1542.87 43C1578.49 43 1578.49 5 1614.1 5C1649.71 5 1649.71 43 1685.33 43C1720.94 43 1720.94 5 1756.55 5C1792.16 5 1792.16 43 1827.78 43C1863.39 43 1863.39 5 1899 5" stroke="#324D43" stroke-width="10" stroke-miterlimit="10" stroke-linecap="round"/>
</svg>
